#!OML:ASF G:\JayActor3\Patient Classification 1\Patient 1\Session 2\male.ASF
:FULLY-SPECIFIED
:DEGREES
4515
root 30.4707 16.8991 -5.76448 5614.8 83.0565 -1585.38
lowerback -1.45558 1.20744 4.28133
upperback 2.88976 1.49601 0.0802541
thorax 3.90752 0.884072 -2.2411
lowerneck -8.56134 -3.74017 -3.54281
upperneck 5.4473 -5.26429 9.78781
head 3.38434 -2.22368 3.26109
rclavicle 1.71452e-015 4.37326e-015
rhumerus -18.809 4.48647 -91.7515
rradius 29.4606
rwrist -5.32413
rhand -21.3664 6.04595
rfingers 7.12502
rthumb 5.02053 -23.8746
lclavicle 1.71452e-015 4.37326e-015
lhumerus -30.2014 13.5234 83.5395
lradius 31.2815
lwrist 9.98193
lhand -17.9262 14.0067
lfingers 7.12502
lthumb 8.34152 43.822
rfemur -0.390374 -4.19493 31.1568
rtibia 22.3116
rfoot -21.2571 -9.31995
rtoes 12.6125
lfemur -27.7416 1.8467 -17.8
ltibia 32.0393
lfoot -12.1674 11.3704
ltoes -16.5807
4516
root 30.556 16.9001 -5.76739 5616.02 83.1184 -1584.27
lowerback -1.53635 1.22616 4.35656
upperback 2.86181 1.51396 0.0908854
thorax 3.92763 0.894662 -2.26993
lowerneck -8.68421 -3.69456 -3.51251
upperneck 5.73009 -5.21948 9.66762
head 3.48214 -2.19651 3.21945
rclavicle 2.60408e-014 -2.78299e-015
rhumerus -18.8491 4.98013 -91.9617
rradius 30.0602
rwrist -5.59986
rhand -21.236 6.0872
rfingers 7.12502
rthumb 5.14652 -23.8303
lclavicle 2.60408e-014 -2.78299e-015
lhumerus -30.2068 13.5412 83.5555
lradius 31.1768
lwrist 9.88671
lhand -17.9469 13.7864
lfingers 7.12502
lthumb 8.32158 43.6024
rfemur 0.0766117 -4.18723 31.2288
rtibia 21.7886
rfoot -21.1655 -9.23789
rtoes 12.5052
lfemur -27.8361 2.171 -17.9791
ltibia 30.4576
lfoot -11.7114 11.0978
ltoes -16.1845
4517
root 30.642 16.9004 -5.77083 5617.28 83.1854 -1583.14
lowerback -1.62598 1.24364 4.42256
upperback 2.83294 1.52994 0.102163
thorax 3.95141 0.90402 -2.2928
lowerneck -8.80896 -3.64763 -3.48623
upperneck 6.00329 -5.17139 9.55204
head 3.5776 -2.16798 3.18021
rclavicle 2.06985e-014 -1.07344e-014
rhumerus -18.9015 5.45759 -92.1659
rradius 30.6303
rwrist -5.81519
rhand -21.0984 6.12746
rfingers 7.12502
rthumb 5.27934 -23.7868
lclavicle 2.06985e-014 -1.07344e-014
lhumerus -30.217 13.5638 83.5677
lradius 31.0537
lwrist 9.80238
lhand -17.9906 13.5904
lfingers 7.12502
lthumb 8.27938 43.4081
rfemur 0.532991 -4.18277 31.2913
rtibia 21.2802
rfoot -21.0734 -9.13944
rtoes 12.4159
lfemur -27.909 2.49743 -18.1619
ltibia 28.8961
lfoot -11.328 10.7733
ltoes -15.8811
4518
root 30.7286 16.9001 -5.77502 5618.61 83.2556 -1581.95
lowerback -1.72439 1.2607 4.48573
upperback 2.8038 1.54484 0.11433
thorax 3.97971 0.912819 -2.31299
lowerneck -8.92758 -3.59902 -3.45709
upperneck 6.25718 -5.11934 9.43622
head 3.6661 -2.13827 3.14095
rclavicle -6.48535e-015 1.03368e-014
rhumerus -18.9637 5.92398 -92.364
rradius 31.1644
rwrist -5.96731
rhand -20.9591 6.16974
rfingers 7.12502
rthumb 5.41381 -23.7411
lclavicle -6.48535e-015 1.03368e-014
lhumerus -30.23 13.592 83.5762
lradius 30.9099
lwrist 9.72898
lhand -18.0474 13.4451
lfingers 7.12502
lthumb 8.22454 43.265
rfemur 0.98062 -4.18022 31.3465
rtibia 20.7855
rfoot -20.978 -9.02412
rtoes 12.337
lfemur -27.961 2.81047 -18.3395
ltibia 27.3662
lfoot -11.0013 10.422
ltoes -15.7011
4519
root 30.8158 16.8991 -5.78001 5620 83.3292 -1580.69
lowerback -1.83038 1.27633 4.54595
upperback 2.77651 1.55736 0.127468
thorax 4.01395 0.920484 -2.33044
lowerneck -9.03819 -3.5479 -3.43197
upperneck 6.48672 -5.06171 9.32754
head 3.74606 -2.10655 3.10519
rclavicle -2.9768e-014 6.36111e-015
rhumerus -19.0326 6.38376 -92.5571
rradius 31.6619
rwrist -6.06061
rhand -20.8154 6.20205
rfingers 7.12502
rthumb 5.55263 -23.7052
lclavicle -2.9768e-014 6.36111e-015
lhumerus -30.2437 13.6276 83.5823
lradius 30.7477
lwrist 9.66913
lhand -18.1096 13.3807
lfingers 7.12502
lthumb 8.1646 43.2029
rfemur 1.42495 -4.17534 31.3932
rtibia 20.3
rfoot -20.8737 -8.89725
rtoes 12.2352
lfemur -27.9918 3.10304 -18.5087
ltibia 25.88
lfoot -10.7128 10.0656
ltoes -15.6125
4520
root 30.9038 16.8976 -5.78583 5621.46 83.4051 -1579.36
lowerback -1.94154 1.29212 4.60698
upperback 2.75083 1.56963 0.140421
thorax 4.05287 0.928198 -2.34835
lowerneck -9.1351 -3.49618 -3.40694
upperneck 6.68976 -5.00144 9.22494
head 3.81592 -2.07438 3.07183
rclavicle -3.57812e-015 3.18055e-015
rhumerus -19.1087 6.83599 -92.746
rradius 32.1159
rwrist -6.09983
rhand -20.672 6.2344
rfingers 7.12502
rthumb 5.69103 -23.6692
lclavicle -3.57812e-015 3.18055e-015
lhumerus -30.2605 13.6768 83.5797
lradius 30.5608
lwrist 9.59903
lhand -18.1627 13.3681
lfingers 7.12502
lthumb 8.11329 43.1923
rfemur 1.87142 -4.15977 31.4336
rtibia 19.8209
rfoot -20.763 -8.76436
rtoes 12.0989
lfemur -28.0009 3.3708 -18.6636
ltibia 24.4513
lfoot -10.4628 9.71225
ltoes -15.4835
4521
root 30.9925 16.8955 -5.79252 5623.01 83.4835 -1577.95
lowerback -2.0535 1.30887 4.67025
upperback 2.72711 1.58293 0.152591
thorax 4.09448 0.936621 -2.36818
lowerneck -9.22093 -3.44434 -3.3795
upperneck 6.8678 -4.93938 9.12442
head 3.87643 -2.04218 3.03912
rclavicle -2.57426e-014 1.59028e-015
rhumerus -19.1939 7.2805 -92.9328
rradius 32.5262
rwrist -6.10177
rhand -20.5376 6.26628
rfingers 7.12502
rthumb 5.82082 -23.6338
lclavicle -2.57426e-014 1.59028e-015
lhumerus -30.2795 13.7406 83.5678
lradius 30.3464
lwrist 9.51323
lhand -18.2065 13.3862
lfingers 7.12502
lthumb 8.07103 43.2121
rfemur 2.32135 -4.13266 31.4679
rtibia 19.3478
rfoot -20.64 -8.63297
rtoes 11.9195
lfemur -27.989 3.60902 -18.8011
ltibia 23.092
lfoot -10.2079 9.37668
ltoes -15.4396
4522
root 31.082 16.8929 -5.79999 5624.63 83.5611 -1576.45
lowerback -2.16313 1.32491 4.73616
upperback 2.70609 1.59518 0.164132
thorax 4.13764 0.944738 -2.39017
lowerneck -9.29601 -3.39292 -3.35398
upperneck 7.02393 -4.87641 9.03064
head 3.92884 -2.01014 3.00911
rclavicle -2.66123e-014 -2.10712e-014
rhumerus -19.288 7.73138 -93.1217
rradius 32.8895
rwrist -6.09358
rhand -20.4296 6.29734
rfingers 7.12502
rthumb 5.92508 -23.5998
lclavicle -2.66123e-014 -2.10712e-014
lhumerus -30.3028 13.8213 83.5441
lradius 30.1051
lwrist 9.41087
lhand -18.254 13.3965
lfingers 7.12502
lthumb 8.02521 43.2242
rfemur 2.77901 -4.09243 31.4983
rtibia 18.8844
rfoot -20.513 -8.50099
rtoes 11.7074
lfemur -27.9538 3.80407 -18.9127
ltibia 21.8145
lfoot -9.97053 9.0566
ltoes -15.2994
4523
root 31.1724 16.8898 -5.80817 5626.29 83.6396 -1574.91
lowerback -2.27313 1.34055 4.79992
upperback 2.68763 1.60684 0.173441
thorax 4.18366 0.952673 -2.41322
lowerneck -9.36664 -3.34199 -3.32705
upperneck 7.16408 -4.81325 8.9408
head 3.97587 -1.97835 2.98023
rclavicle -2.90226e-014 3.97569e-015
rhumerus -19.3881 8.18127 -93.3118
rradius 33.2006
rwrist -6.07186
rhand -20.3367 6.32187
rfingers 7.12502
rthumb 6.01477 -23.5728
lclavicle -2.90226e-014 3.97569e-015
lhumerus -30.3269 13.922 83.5074
lradius 29.8341
lwrist 9.29147
lhand -18.3034 13.4075
lfingers 7.12502
lthumb 7.97756 43.2369
rfemur 3.2377 -4.04046 31.5213
rtibia 18.4366
rfoot -20.3878 -8.36975
rtoes 11.4938
lfemur -27.9003 3.93886 -18.995
ltibia 20.6299
lfoot -9.74416 8.76413
ltoes -15.122
4524
root 31.2636 16.8862 -5.81699 5628 83.717 -1573.31
lowerback -2.38386 1.35539 4.86218
upperback 2.67013 1.61733 0.181706
thorax 4.23102 0.960063 -2.43652
lowerneck -9.43505 -3.29199 -3.30155
upperneck 7.29365 -4.75077 8.85776
head 4.0197 -1.94693 2.95373
rclavicle -3.00662e-015 -1.11319e-014
rhumerus -19.4946 8.64893 -93.5049
rradius 33.4551
rwrist -6.06301
rhand -20.2784 6.35102
rfingers 7.12502
rthumb 6.07109 -23.542
lclavicle -3.00662e-015 -1.11319e-014
lhumerus -30.3553 14.0446 83.4561
lradius 29.5363
lwrist 9.15471
lhand -18.3498 13.4084
lfingers 7.12502
lthumb 7.93271 43.2396
rfemur 3.69193 -3.9772 31.5403
rtibia 18.011
rfoot -20.266 -8.23375
rtoes 11.3287
lfemur -27.8326 3.99888 -19.0391
ltibia 19.55
lfoot -9.53314 8.51745
ltoes -14.935
4525
root 31.3556 16.882 -5.82645 5629.81 83.7922 -1571.62
lowerback -2.49964 1.36934 4.92216
upperback 2.65267 1.62626 0.190551
thorax 4.28111 0.96667 -2.45789
lowerneck -9.50248 -3.24106 -3.27502
upperneck 7.4144 -4.68665 8.77769
head 4.06075 -1.91481 2.92817
rclavicle 1.71949e-014 -1.11319e-014
rhumerus -19.6025 9.1232 -93.696
rradius 33.6473
rwrist -6.04047
rhand -20.2153 6.37097
rfingers 7.12502
rthumb 6.13191 -23.5203
lclavicle 1.71949e-014 -1.11319e-014
lhumerus -30.386 14.1909 83.3911
lradius 29.2125
lwrist 9.00356
lhand -18.3889 13.4044
lfingers 7.12502
lthumb 7.89504 43.237
rfemur 4.13266 -3.906 31.5569
rtibia 17.6141
rfoot -20.151 -8.09118
rtoes 11.2075
lfemur -27.76 3.98227 -19.041
ltibia 18.587
lfoot -9.34737 8.32718
ltoes -14.7034
4526
root 31.4484 16.877 -5.83651 5631.74 83.8636 -1569.82
lowerback -2.62507 1.38459 4.98319
upperback 2.63286 1.63615 0.200082
thorax 4.33435 0.973796 -2.47885
lowerneck -9.56703 -3.1899 -3.2414
upperneck 7.52874 -4.62237 8.69594
head 4.09927 -1.88276 2.90103
rclavicle 4.29872e-015 -1.98785e-015
rhumerus -19.7105 9.59885 -93.8828
rradius 33.7705
rwrist -5.99138
rhand -20.1437 6.38207
rfingers 7.12502
rthumb 6.20111 -23.5072
lclavicle 4.29872e-015 -1.98785e-015
lhumerus -30.4208 14.358 83.3129
lradius 28.8645
lwrist 8.83819
lhand -18.4228 13.3983
lfingers 7.12502
lthumb 7.86224 43.2321
rfemur 4.55199 -3.82499 31.5749
rtibia 17.253
rfoot -20.0459 -7.94509
rtoes 11.1203
lfemur -27.6902 3.90022 -19.0005
ltibia 17.7519
lfoot -9.19091 8.1978
ltoes -14.4373
4527
root 31.542 16.8711 -5.84715 5633.83 83.9291 -1567.86
lowerback -2.76184 1.40072 5.04629
upperback 2.60942 1.64623 0.211899
thorax 4.39029 0.981026 -2.49834
lowerneck -9.62793 -3.13686 -3.20546
upperneck 7.63917 -4.55573 8.61721
head 4.13599 -1.84953 2.87469
rclavicle -7.97623e-015 1.59028e-015
rhumerus -19.8205 10.0725 -94.0661
rradius 33.8255
rwrist -5.91375
rhand -20.0484 6.38042
rfingers 7.12502
rthumb 6.29305 -23.5061
lclavicle -7.97623e-015 1.59028e-015
lhumerus -30.4592 14.5516 83.2204
lradius 28.4888
lwrist 8.65422
lhand -18.4445 13.3905
lfingers 7.12502
lthumb 7.84129 43.2251
rfemur 4.94148 -3.73772 31.5962
rtibia 16.9359
rfoot -19.9474 -7.79263
rtoes 11.0505
lfemur -27.6293 3.77793 -18.9245
ltibia 17.0526
lfoot -9.06922 8.11689
ltoes -14.1696
4528
root 31.6366 16.8643 -5.85828 5636.09 83.9875 -1565.74
lowerback -2.90853 1.4191 5.11174
upperback 2.58072 1.65841 0.22585
thorax 4.44659 0.989228 -2.51658
lowerneck -9.68091 -3.08325 -3.16857
upperneck 7.7456 -4.48846 8.54254
head 4.17033 -1.81605 2.84964
rclavicle 1.41634e-014 -1.23246e-014
rhumerus -19.9347 10.5396 -94.2454
rradius 33.8109
rwrist -5.80412
rhand -19.9397 6.37018
rfingers 7.12502
rthumb 6.39798 -23.5132
lclavicle 1.41634e-014 -1.23246e-014
lhumerus -30.5046 14.7641 83.115
lradius 28.0881
lwrist 8.45541
lhand -18.4622 13.3944
lfingers 7.12502
lthumb 7.82425 43.2296
rfemur 5.29685 -3.6389 31.6217
rtibia 16.6728
rfoot -19.8625 -7.63282
rtoes 10.9916
lfemur -27.5783 3.65861 -18.8287
ltibia 16.4893
lfoot -8.99967 8.04566
ltoes -13.8289
4529
root 31.732 16.8562 -5.86985 5638.52 84.0373 -1563.46
lowerback -3.06374 1.44127 5.18016
upperback 2.54586 1.67482 0.241197
thorax 4.50176 0.999445 -2.53457
lowerneck -9.73011 -3.02998 -3.12307
upperneck 7.8512 -4.42231 8.46453
head 4.2037 -1.78316 2.82215
rclavicle -1.73688e-014 -6.75868e-015
rhumerus -20.055 10.9897 -94.4209
rradius 33.7271
rwrist -5.66227
rhand -19.8256 6.35324
rfingers 7.12502
rthumb 6.50817 -23.5268
lclavicle -1.73688e-014 -6.75868e-015
lhumerus -30.5586 14.9904 82.9964
lradius 27.6615
lwrist 8.24046
lhand -18.4798 13.3904
lfingers 7.12502
lthumb 7.80727 43.2263
rfemur 5.6103 -3.52853 31.652
rtibia 16.4752
rfoot -19.7901 -7.46849
rtoes 10.9325
lfemur -27.5321 3.57416 -18.7259
ltibia 16.0531
lfoot -8.97394 7.94998
ltoes -13.5643
